<?xml version="1.0" encoding="UTF-8"?>
<svg width="64px" height="64px" viewBox="0 0 64 64" version="1.1" xmlns="http://www.w3.org/2000/svg" xmlns:xlink="http://www.w3.org/1999/xlink">
    <!-- Generator: Sketch 47.1 (45422) - http://www.bohemiancoding.com/sketch -->
    <title>KTB</title>
    <desc>Created with Sketch.</desc>
    <defs></defs>
    <g id="Assets" stroke="none" stroke-width="1" fill="none" fill-rule="evenodd">
        <g id="KTB" fill="#BEC2CC">
            <g id="Combined-Shape">
                <path d="M64,32 C64,49.6736 49.6736,64 32,64 C14.3264,64 0,49.6736 0,32 C0,14.3264 14.3264,0 32,0 C49.6736,0 64,14.3264 64,32 Z M50.5388927,36.198175 C51.1895244,34.3948 50.7245646,30.92665 50.7245646,30.92665 L51.2129285,30.575425 C51.2129285,30.575425 51.4672521,29.800525 50.8415847,27.66955 C50.214357,25.537 48.65877,23.428075 48.65877,23.428075 L49.1455735,22.864225 C49.1455735,22.864225 47.8224664,21.1774 46.8020512,20.47495 C45.7800758,19.7725 44.4569686,18.904675 42.7391137,18.88105 C41.0212588,18.857425 39.9758793,20.0056 39.2331918,20.709625 C38.4905043,21.412075 37.0971851,22.420075 35.5431584,22.372825 C33.9875713,22.325575 32.733116,21.1774 32.3383682,20.38045 C31.9451807,19.585075 32.2931204,18.67 33.0358079,17.87305 C33.7784954,17.077675 34.1264351,17.077675 34.6600468,17.0068 C35.1936584,16.935925 35.4495423,16.37365 35.4495423,16.37365 C35.4495423,16.37365 36.0065579,16.397275 36.7492454,16.2571 C37.4919329,16.11535 37.3530691,15.6712 37.7244128,15.647575 C38.0957566,15.62395 38.6309285,15.436525 38.6309285,15.436525 C38.3516405,15.3436 38.4202923,14.850625 37.562145,14.428525 C36.7024374,14.006425 35.9145021,14.3356 35.9145021,14.3356 C35.9145021,14.3356 35.2404664,13.7497 34.9611785,13.609525 C34.6834508,13.467775 33.8018994,13.02205 32.4787923,13.0693 C31.1556851,13.11655 30.0634976,14.217475 30.0634976,14.217475 C30.0634976,14.217475 29.762366,14.359225 29.483078,14.311975 C29.2053503,14.264725 29.2740021,13.9135 29.2740021,13.9135 C29.483078,13.37485 29.2053503,13 28.9260624,13 C28.6483347,13 28.1599709,13.21105 28.2535869,13.96075 C28.3456427,14.71045 29.0649262,14.9908 29.0649262,14.9908 C29.0649262,14.9908 28.8340066,15.436525 28.4845066,15.4129 C28.1365668,15.389275 27.997703,15.108925 27.997703,15.108925 C27.997703,15.108925 27.950895,14.71045 27.927491,14.428525 C27.9056472,14.148175 27.4172834,13.9135 26.9991316,14.217475 C26.5825401,14.523025 26.6511918,15.13255 27.3018235,15.694825 C27.950895,16.2571 28.8792543,16.116925 28.8792543,16.116925 C28.4158548,16.30435 28.3924508,16.95955 28.2535869,17.2651 C28.1131628,17.569075 27.7652231,17.47615 27.5795512,17.991175 C27.3938793,18.5062 27.4874954,19.3504 27.4874954,19.3504 C27.4874954,19.3504 26.7666517,19.88905 26.7666517,20.170975 C26.7666517,20.451325 26.3968682,20.80255 26.2330401,20.89705 C26.0707722,20.989975 25.0956048,21.2719 24.4231293,20.967925 C23.7490936,20.662375 23.14527,19.79455 22.4025825,19.162975 C21.659895,18.529825 20.2899798,18.3424 19.0604887,18.740875 C17.8294374,19.13935 16.0663347,20.8498 15.439107,21.81055 C14.8118793,22.7713 14.3016718,23.89585 14.3937276,24.05965 C14.4873436,24.22345 14.6964195,24.177775 14.6964195,24.177775 C13.8367119,24.99835 12.9785646,28.279075 13.0004084,29.2855 C13.0238124,30.2935 13.0004084,30.222625 13.3265043,30.269875 C13.6510401,30.317125 13.7212521,30.480925 13.7212521,30.480925 C13.7212521,30.480925 13.3733124,31.394425 13.2562923,32.285875 C13.1408325,33.17575 13.1174285,35.073625 13.3733124,35.61385 C13.627636,36.1525 14.1394039,36.10525 14.1394039,36.10525 C14.1394039,36.10525 14.4639396,38.541775 15.0443593,40.393975 C15.6247789,42.2446 16.7388101,44.0023 17.2256137,44.470075 C17.7139776,44.939425 18.0619173,45.05755 18.2475892,44.728375 C18.433261,44.400775 18.0619173,44.142475 17.8996494,43.744 C17.7373816,43.345525 17.8060334,43.112425 17.7607856,42.9943 C17.7139776,42.87775 17.2256137,42.19735 17.1569619,41.96425 C17.0867499,41.729575 17.180366,41.307475 17.2490177,40.652275 C17.3192298,39.9955 17.2256137,39.058375 17.2256137,39.058375 C17.2256137,39.058375 17.5751137,38.425225 17.7139776,37.792075 C17.8528414,37.1605 17.8294374,36.387175 17.8294374,36.387175 L18.2943972,36.387175 L18.735953,36.034375 C18.735953,36.034375 18.7812008,35.51935 18.8514128,34.93345 C18.9216249,34.34755 19.4786405,34.3003 19.7797722,33.996325 C20.0809039,33.69235 20.197924,32.988325 20.197924,32.988325 C20.197924,32.988325 20.9406115,33.199375 21.753511,32.988325 C22.5664106,32.777275 23.3543459,32.00395 23.3543459,32.00395 C23.3543459,32.00395 24.0517856,31.8874 24.3997253,31.67635 C24.7476651,31.4653 24.8412811,30.903025 24.8412811,30.903025 C24.8412811,30.903025 25.3514887,30.997525 25.7696405,30.83215 C26.1877923,30.66835 26.6043838,30.364375 26.6043838,30.364375 C26.6043838,30.364375 26.7900557,30.997525 27.0693436,31.25425 C27.3470713,31.51255 27.5795512,31.5598 27.8354351,31.7929 C28.0897588,32.027575 28.2301829,32.6371 28.6249307,32.75365 C29.0196785,32.871775 29.0430825,32.8954 28.9026584,33.130075 C28.7637945,33.363175 27.3018235,33.9727 27.3018235,33.9727 C27.3018235,33.9727 26.0473682,34.0672 25.5605646,34.043575 C25.0722008,34.01995 24.3529173,33.85615 24.1204374,33.9727 C23.8895177,34.08925 22.9595981,34.8169 22.6818704,35.051575 C22.4025825,35.284675 22.5882543,35.84695 22.5882543,35.84695 L22.8909463,35.706775 C22.8909463,35.706775 22.8441383,35.917825 22.9143503,36.176125 C22.9830021,36.43285 23.1000222,36.69115 23.1000222,36.69115 L23.3309418,36.43285 C23.471366,36.762025 23.518174,36.6439 23.518174,36.6439 C23.518174,36.6439 23.7724976,36.387175 23.7724976,36.245425 C23.7724976,36.10525 23.9347655,35.917825 24.1438414,35.917825 C24.3529173,35.917825 24.4933414,35.94145 24.700857,35.823325 C24.9099329,35.706775 25.0722008,35.542975 25.1424128,35.51935 C25.2126249,35.495725 25.4217008,35.801275 25.7228325,35.801275 C26.0239642,35.801275 26.6511918,35.262625 26.9304798,35.262625 C27.2082075,35.262625 27.6731673,35.426425 27.974299,35.448475 C28.276991,35.4721 28.7871985,35.7304 28.7871985,35.7304 C28.8574106,35.448475 28.4626628,35.051575 28.4392588,34.8169 C28.4158548,34.582225 28.7169865,34.3948 28.8792543,34.51135 C29.0430825,34.629475 29.1819463,34.83895 29.3208101,34.698775 C29.459674,34.5586 29.459674,34.1365 29.483078,33.9727 C29.506482,33.8089 29.6921539,33.574225 29.9480378,33.574225 C30.2023615,33.574225 30.6205133,34.01995 30.9232052,34.18375 C31.2243369,34.34755 31.1088771,34.3948 31.341357,34.629475 C31.5722767,34.862575 31.8749686,34.86415 32.2229084,34.8862 C32.5708481,34.909825 32.6410601,35.09725 32.4319843,35.284675 C32.2229084,35.4721 30.6673213,36.339925 30.6673213,36.339925 C30.6673213,36.339925 28.4626628,36.36355 27.6965713,36.409225 C26.9304798,36.456475 25.7696405,37.69915 25.6760244,38.166925 C25.5839686,38.636275 25.7696405,38.94025 25.7696405,38.94025 C25.7914843,38.7292 26.1877923,38.752825 26.1877923,38.752825 C26.1643883,39.080425 26.4187119,39.52615 26.4187119,39.52615 C26.3968682,39.269425 26.8368637,39.174925 26.8368637,39.174925 C26.8836718,39.644275 27.3938793,39.877375 27.3938793,39.877375 C27.3938793,39.877375 27.2784195,39.549775 27.3704753,39.3151 C27.4640914,39.080425 27.7418191,38.61265 27.927491,38.4016 C28.1131628,38.19055 28.3690468,37.8157 28.3690468,37.8157 C28.6015267,38.050375 29.3208101,38.050375 29.3208101,38.050375 C29.3208101,38.050375 29.6687499,37.8157 30.0166896,37.8157 C30.3661896,37.8157 30.3193816,37.9102 30.7141293,37.955875 C31.1088771,38.003125 31.271145,37.69915 31.4568168,37.770025 C31.6424887,37.839325 31.9670244,38.4961 31.9670244,38.4961 C31.9670244,38.4961 32.2229084,38.4016 32.3617722,37.9795 C32.500636,37.5574 32.2463124,37.27705 32.1292923,37.1605 C32.0138325,37.042375 32.1995043,36.714775 32.4319843,36.667525 C32.6629039,36.620275 32.803328,36.7384 33.2682878,36.831325 C33.7316874,36.925825 33.9407633,36.456475 33.9407633,36.456475 C33.1746718,36.245425 33.2214798,35.84695 33.5226115,35.590225 C33.8253035,35.331925 34.335511,34.793275 34.8004709,35.051575 C35.2638704,35.3083 34.7770668,35.801275 34.9393347,36.058 C35.1016026,36.3163 35.4495423,36.1525 35.6820222,36.081625 C35.9145021,36.01075 36.07677,35.84695 36.3310936,36.26905 C36.5869776,36.69115 36.5401695,36.7384 36.1922298,37.3936 C35.8442901,38.050375 35.4495423,38.330725 35.2638704,38.074 C35.0781985,37.8157 33.9641673,37.744825 33.9641673,38.44885 C33.9641673,39.1513 34.8004709,39.10405 34.8004709,39.10405 C34.8004709,39.10405 34.4275668,39.502525 34.6366427,40.0648 C34.8457186,40.62865 35.7288302,40.557775 35.7288302,40.557775 C35.7054262,41.190925 35.1250066,42.104425 34.1966472,42.104425 C33.2667276,42.104425 32.9421918,41.7532 32.9421918,41.7532 C32.9421918,41.7532 33.1278637,42.4084 32.1761003,42.45565 C31.2243369,42.5029 31.1775289,41.3311 31.1775289,41.3311 C31.1775289,41.3311 30.5986695,42.12805 31.1322811,42.854125 C31.6658927,43.5802 32.75652,43.62745 32.75652,43.62745 C32.75652,43.62745 33.1746718,44.37715 33.7082834,44.517325 C34.241895,44.659075 34.9845825,44.517325 35.4495423,44.448025 C35.9145021,44.37715 36.4013057,44.470075 36.4013057,44.470075 C35.3574865,47.79805 32.8719798,48.782425 32.0606405,48.90055 C31.247741,49.0171 29.6921539,49.040725 28.9494664,48.829675 C28.2067789,48.618625 27.3938793,47.2594 27.4640914,46.6042 C27.5327432,45.947425 28.1833749,45.5017 28.5781226,45.5017 C28.9728704,45.5017 29.6219418,45.244975 29.506482,44.659075 C29.3910222,44.073175 28.7403905,43.862125 27.950895,44.21335 C27.1613994,44.564575 26.3719039,45.689125 26.5825401,47.04835 C26.7900557,48.407575 27.3938793,48.782425 27.3938793,48.782425 L27.3704753,49.251775 C24.5151851,48.407575 23.6804418,47.002675 23.5400177,45.5017 C23.4011539,44.0023 24.0751896,43.5109 24.6322052,43.392775 C25.1892209,43.276225 25.5371606,43.1581 25.4903526,42.595825 C25.4435445,42.03355 24.7710691,41.776825 24.2374575,41.86975 C23.7038459,41.96425 22.5648503,42.268225 22.3105267,44.04955 C22.0546427,45.830875 22.7505222,47.5177 24.724261,49.087975 C26.6979999,50.65825 29.78577,50.329075 29.78577,50.329075 C30.8763972,51.14965 32.7097119,51.595375 34.591395,51.384325 C36.4715177,51.173275 39.7902075,49.3447 41.0212588,46.29865 C42.2507499,43.2526 40.9276427,39.971875 40.9276427,39.971875 C40.9276427,39.971875 41.6016785,39.127675 41.3691985,36.620275 C41.1367186,34.112875 39.2097878,32.544175 39.2097878,32.544175 C39.2097878,32.544175 39.0007119,31.93465 39.094328,31.74565 C39.1863838,31.5598 39.4188637,31.605475 39.6513436,31.74565 C39.8838235,31.8874 40.0928994,32.074825 40.0928994,32.074825 C40.0928994,32.074825 40.7185668,32.00395 40.882395,31.816525 C41.0446628,31.6291 41.4612543,31.652725 41.7171383,31.769275 C41.9730222,31.8874 42.4364218,31.911025 42.4364218,31.911025 C42.4364218,31.911025 42.6454976,31.58185 42.9247856,31.5598 C43.2025133,31.536175 43.3195334,31.7236 43.4583972,31.863775 C43.597261,32.00395 43.829741,32.1457 43.829741,32.1457 C43.946761,31.980325 44.2712968,31.9567 44.6192365,32.26225 C44.9671762,32.5678 45.2464642,33.363175 45.4789441,33.8089 C45.7098637,34.254625 46.2450356,34.534975 46.2450356,34.534975 C46.2450356,34.534975 45.8034798,35.659525 45.9423436,36.94945 C46.0812075,38.2378 46.5227633,38.94025 46.5227633,38.94025 C46.5227633,38.94025 46.3136874,39.1513 46.1280155,39.760825 C45.9423436,40.37035 45.9657476,41.354725 46.1514195,41.80045 C46.3370914,42.2446 46.2450356,42.970675 46.2450356,42.970675 C45.4789441,43.3471 45.1060401,44.353525 45.1762521,45.12685 C45.2464642,45.900175 45.315116,45.9238 45.6412119,45.852925 C45.9657476,45.783625 46.8020512,44.70475 48.1251584,42.0115 C49.4482655,39.3151 49.8430133,36.43285 49.8430133,36.43285 L50.5388927,36.198175 Z"></path>
            </g>
        </g>
    </g>
</svg>